<svg width="652" height="622" viewBox="0 0 652 622" fill="none" xmlns="http://www.w3.org/2000/svg">
<path d="M-206.897 462.925C-213.138 375.565 -192.8 288.362 -148.581 212.881C-104.362 137.399 -38.3503 77.2031 40.7012 40.2753C119.753 3.34738 208.109 -8.56819 294.056 6.10851C380.002 20.7852 459.478 61.3608 521.945 122.455C584.413 183.55 626.92 262.277 643.832 348.198C660.743 434.118 651.26 523.174 616.639 603.556C582.019 683.938 523.896 751.85 449.978 798.286C376.061 844.722 289.84 867.488 202.748 863.567L210.97 679.246C260.866 681.493 310.262 668.45 352.61 641.846C394.957 615.243 428.256 576.336 448.09 530.285C467.925 484.234 473.358 433.214 463.669 383.989C453.98 334.765 429.627 289.662 393.84 254.661C358.052 219.66 312.52 196.414 263.281 188.005C214.042 179.597 163.422 186.424 118.133 207.58C72.8445 228.736 35.0262 263.222 9.69295 306.466C-15.6403 349.71 -27.2917 399.668 -23.7164 449.717L-206.897 462.925Z" fill="#D9D9D9"/>
<path d="M406 384C406 458.558 345.558 519 271 519C196.442 519 136 458.558 136 384C136 309.442 196.442 249 271 249C345.558 249 406 309.442 406 384Z" fill="#D9D9D9"/>
<path d="M331 317C331 333.569 317.569 347 301 347C284.431 347 271 333.569 271 317C271 300.431 284.431 287 301 287C317.569 287 331 300.431 331 317Z" fill="#3D99AB"/>
<path d="M355 367C355 378.046 346.046 387 335 387C323.954 387 315 378.046 315 367C315 355.954 323.954 347 335 347C346.046 347 355 355.954 355 367Z" fill="#3D99AB"/>
</svg>
